<?xml version="1.0" encoding="UTF-8"?>
<svg version="1.1" xmlns="http://www.w3.org/2000/svg" width="600" height="600">
<path d="M0 0 C0.89115509 -0.00974854 1.78231018 -0.01949707 2.70046997 -0.02954102 C22.62425928 -0.20256755 41.87720991 0.0375848 61.4453125 4.23828125 C62.35555176 4.43083496 63.26579102 4.62338867 64.20361328 4.82177734 C70.01374682 6.08742427 75.73885668 7.56827693 81.4453125 9.23828125 C82.19538574 9.45709961 82.94545898 9.67591797 83.71826172 9.90136719 C128.38444038 23.23253335 170.76012401 51.37060788 199.4453125 88.23828125 C199.9417627 88.8636377 200.43821289 89.48899414 200.94970703 90.13330078 C208.59242284 99.76077958 215.52156357 109.46434307 221.4453125 120.23828125 C221.91324219 121.08132812 222.38117188 121.924375 222.86328125 122.79296875 C240.57184037 154.93241024 252.45481165 191.06415162 252.6484375 228.06640625 C252.65549713 228.96959091 252.66255676 229.87277557 252.66983032 230.80332947 C252.89634609 268.27076688 252.89634609 268.27076688 249.4453125 284.23828125 C249.23600098 285.23230957 249.02668945 286.22633789 248.81103516 287.25048828 C237.12333937 341.63590921 208.77296018 392.69871821 164.4453125 427.23828125 C163.1898414 428.2457664 161.9346515 429.25360202 160.6796875 430.26171875 C137.95986128 448.30465179 112.13867667 461.64061173 84.4453125 470.23828125 C83.32745361 470.58947021 83.32745361 470.58947021 82.18701172 470.94775391 C63.56456563 476.709009 44.13528456 480.33927171 24.6171875 480.44140625 C23.26241051 480.4519957 23.26241051 480.4519957 21.88026428 480.46279907 C-15.58717313 480.68931484 -15.58717313 480.68931484 -31.5546875 477.23828125 C-32.54871582 477.02896973 -33.54274414 476.8196582 -34.56689453 476.60400391 C-88.92328808 464.92254625 -140.05652702 436.57708394 -174.5546875 392.23828125 C-175.29936279 391.30024658 -175.29936279 391.30024658 -176.05908203 390.34326172 C-183.70253846 380.71484997 -190.61051531 371.0011019 -196.5546875 360.23828125 C-196.98491211 359.47064453 -197.41513672 358.70300781 -197.85839844 357.91210938 C-215.66207234 325.94383757 -227.4567977 289.54126237 -227.79296875 252.68359375 C-227.80271729 251.79243866 -227.81246582 250.90128357 -227.82250977 249.98312378 C-227.9955363 230.05933447 -227.75538395 210.80638384 -223.5546875 191.23828125 C-223.36213379 190.32804199 -223.16958008 189.41780273 -222.97119141 188.47998047 C-221.70554448 182.66984693 -220.22469182 176.94473707 -218.5546875 171.23828125 C-218.33586914 170.48820801 -218.11705078 169.73813477 -217.89160156 168.96533203 C-204.5604354 124.29915337 -176.42236087 81.92346974 -139.5546875 53.23828125 C-138.92933105 52.74183105 -138.30397461 52.24538086 -137.65966797 51.73388672 C-128.03125622 44.09043029 -118.31750815 37.18245344 -107.5546875 31.23828125 C-106.78705078 30.80805664 -106.01941406 30.37783203 -105.22851562 29.93457031 C-73.26024382 12.13089641 -36.85766862 0.33617105 0 0 Z " fill="#030000" transform="translate(288.5546875,60.76171875)"/>
<path d="M0 0 C0.89115509 -0.00974854 1.78231018 -0.01949707 2.70046997 -0.02954102 C22.62425928 -0.20256755 41.87720991 0.0375848 61.4453125 4.23828125 C62.35555176 4.43083496 63.26579102 4.62338867 64.20361328 4.82177734 C70.01374682 6.08742427 75.73885668 7.56827693 81.4453125 9.23828125 C82.19538574 9.45709961 82.94545898 9.67591797 83.71826172 9.90136719 C128.38444038 23.23253335 170.76012401 51.37060788 199.4453125 88.23828125 C199.9417627 88.8636377 200.43821289 89.48899414 200.94970703 90.13330078 C208.59242284 99.76077958 215.52156357 109.46434307 221.4453125 120.23828125 C221.91324219 121.08132812 222.38117188 121.924375 222.86328125 122.79296875 C240.57155788 154.93189755 252.45571707 191.06452711 252.6484375 228.06640625 C252.65531586 228.97027069 252.66219421 229.87413513 252.66928101 230.8053894 C252.68633449 233.69972831 252.69273246 236.59389481 252.6953125 239.48828125 C252.69698425 240.47294373 252.69865601 241.4576062 252.70037842 242.47210693 C252.70182123 256.61886305 252.29325833 270.33507088 249.4453125 284.23828125 C249.26452148 285.15061523 249.08373047 286.06294922 248.89746094 287.00292969 C248.41861249 289.41575157 247.9326229 291.82715416 247.4453125 294.23828125 C244.1453125 294.23828125 240.8453125 294.23828125 237.4453125 294.23828125 C236.4453125 291.23828125 236.4453125 291.23828125 237.4453125 288.23828125 C233.1665144 288.65414479 233.1665144 288.65414479 229.5703125 290.80078125 C229.1990625 291.27515625 228.8278125 291.74953125 228.4453125 292.23828125 C227.4553125 291.57828125 226.4653125 290.91828125 225.4453125 290.23828125 C224.7853125 291.55828125 224.1253125 292.87828125 223.4453125 294.23828125 C221.78805995 291.25522667 221.03191415 288.59029068 220.4453125 285.23828125 C220.2390625 284.49578125 220.0328125 283.75328125 219.8203125 282.98828125 C219.6965625 282.41078125 219.5728125 281.83328125 219.4453125 281.23828125 C220.4453125 280.23828125 220.4453125 280.23828125 223.0078125 280.17578125 C223.8121875 280.19640625 224.6165625 280.21703125 225.4453125 280.23828125 C225.1153125 278.25828125 224.7853125 276.27828125 224.4453125 274.23828125 C225.4353125 273.90828125 226.4253125 273.57828125 227.4453125 273.23828125 C227.1153125 272.24828125 226.7853125 271.25828125 226.4453125 270.23828125 C224.4653125 269.90828125 222.4853125 269.57828125 220.4453125 269.23828125 C220.4453125 269.89828125 220.4453125 270.55828125 220.4453125 271.23828125 C219.7853125 271.23828125 219.1253125 271.23828125 218.4453125 271.23828125 C218.7753125 269.25828125 219.1053125 267.27828125 219.4453125 265.23828125 C220.7653125 265.23828125 222.0853125 265.23828125 223.4453125 265.23828125 C222.77662936 262.12495877 222.77662936 262.12495877 220.3828125 261.05078125 C219.7434375 260.78265625 219.1040625 260.51453125 218.4453125 260.23828125 C218.7753125 258.91828125 219.1053125 257.59828125 219.4453125 256.23828125 C220.7653125 256.23828125 222.0853125 256.23828125 223.4453125 256.23828125 C222.9503125 255.78453125 222.4553125 255.33078125 221.9453125 254.86328125 C220.4453125 253.23828125 220.4453125 253.23828125 220.4453125 251.23828125 C221.1053125 251.23828125 221.7653125 251.23828125 222.4453125 251.23828125 C222.4453125 249.91828125 222.4453125 248.59828125 222.4453125 247.23828125 C220.7953125 247.23828125 219.1453125 247.23828125 217.4453125 247.23828125 C217.7753125 245.58828125 218.1053125 243.93828125 218.4453125 242.23828125 C217.1253125 242.23828125 215.8053125 242.23828125 214.4453125 242.23828125 C214.4453125 241.57828125 214.4453125 240.91828125 214.4453125 240.23828125 C215.1053125 240.23828125 215.7653125 240.23828125 216.4453125 240.23828125 C216.4453125 239.24828125 216.4453125 238.25828125 216.4453125 237.23828125 C214.1353125 237.56828125 211.8253125 237.89828125 209.4453125 238.23828125 C209.4453125 237.57828125 209.4453125 236.91828125 209.4453125 236.23828125 C208.4553125 236.23828125 207.4653125 236.23828125 206.4453125 236.23828125 C206.1153125 237.55828125 205.7853125 238.87828125 205.4453125 240.23828125 C203.4653125 240.23828125 201.4853125 240.23828125 199.4453125 240.23828125 C199.4453125 241.55828125 199.4453125 242.87828125 199.4453125 244.23828125 C195.5703125 242.48828125 195.5703125 242.48828125 194.4453125 240.23828125 C194.8828125 238.11328125 194.8828125 238.11328125 195.4453125 236.23828125 C194.1253125 235.90828125 192.8053125 235.57828125 191.4453125 235.23828125 C191.1153125 236.55828125 190.7853125 237.87828125 190.4453125 239.23828125 C189.4553125 238.90828125 188.4653125 238.57828125 187.4453125 238.23828125 C188.1053125 240.21828125 188.7653125 242.19828125 189.4453125 244.23828125 C187.27656998 243.73224133 185.44563623 243.23844312 183.4453125 242.23828125 C183.7753125 244.87828125 184.1053125 247.51828125 184.4453125 250.23828125 C182.4653125 249.57828125 180.4853125 248.91828125 178.4453125 248.23828125 C178.4453125 246.25828125 178.4453125 244.27828125 178.4453125 242.23828125 C176.4653125 242.56828125 174.4853125 242.89828125 172.4453125 243.23828125 C172.1153125 242.24828125 171.7853125 241.25828125 171.4453125 240.23828125 C170.7853125 240.23828125 170.1253125 240.23828125 169.4453125 240.23828125 C169.7753125 239.57828125 170.1053125 238.91828125 170.4453125 238.23828125 C172.0953125 238.56828125 173.7453125 238.89828125 175.4453125 239.23828125 C174.9503125 238.80515625 174.4553125 238.37203125 173.9453125 237.92578125 C172.4453125 236.23828125 172.4453125 236.23828125 172.4453125 233.23828125 C174.7553125 233.23828125 177.0653125 233.23828125 179.4453125 233.23828125 C178.7853125 231.91828125 178.1253125 230.59828125 177.4453125 229.23828125 C178.1053125 228.24828125 178.7653125 227.25828125 179.4453125 226.23828125 C177.7953125 226.23828125 176.1453125 226.23828125 174.4453125 226.23828125 C174.4453125 225.24828125 174.4453125 224.25828125 174.4453125 223.23828125 C173.4553125 223.23828125 172.4653125 223.23828125 171.4453125 223.23828125 C171.4453125 224.22828125 171.4453125 225.21828125 171.4453125 226.23828125 C169.4653125 226.56828125 167.4853125 226.89828125 165.4453125 227.23828125 C165.7753125 227.89828125 166.1053125 228.55828125 166.4453125 229.23828125 C161.6409917 231.64044165 156.71427355 231.84950354 151.4453125 232.23828125 C151.4453125 230.91828125 151.4453125 229.59828125 151.4453125 228.23828125 C154.4153125 228.56828125 157.3853125 228.89828125 160.4453125 229.23828125 C160.4453125 228.57828125 160.4453125 227.91828125 160.4453125 227.23828125 C158.7953125 226.57828125 157.1453125 225.91828125 155.4453125 225.23828125 C155.9196875 224.66078125 156.3940625 224.08328125 156.8828125 223.48828125 C158.3937992 221.31246041 158.98567401 219.81225677 159.4453125 217.23828125 C158.1253125 217.23828125 156.8053125 217.23828125 155.4453125 217.23828125 C155.4453125 217.89828125 155.4453125 218.55828125 155.4453125 219.23828125 C153.1353125 219.56828125 150.8253125 219.89828125 148.4453125 220.23828125 C148.4453125 219.57828125 148.4453125 218.91828125 148.4453125 218.23828125 C149.1053125 217.90828125 149.7653125 217.57828125 150.4453125 217.23828125 C150.1153125 216.24828125 149.7853125 215.25828125 149.4453125 214.23828125 C147.1353125 213.90828125 144.8253125 213.57828125 142.4453125 213.23828125 C142.4453125 214.22828125 142.4453125 215.21828125 142.4453125 216.23828125 C141.548125 215.77421875 141.548125 215.77421875 140.6328125 215.30078125 C138.35574478 214.13618421 138.35574478 214.13618421 135.4453125 213.23828125 C135.4453125 212.24828125 135.4453125 211.25828125 135.4453125 210.23828125 C136.1053125 210.23828125 136.7653125 210.23828125 137.4453125 210.23828125 C137.4453125 208.91828125 137.4453125 207.59828125 137.4453125 206.23828125 C138.1053125 206.23828125 138.7653125 206.23828125 139.4453125 206.23828125 C138.65897328 205.08878537 137.86604992 203.94379136 137.0703125 202.80078125 C136.62945312 202.16269531 136.18859375 201.52460938 135.734375 200.8671875 C134.52370397 199.10087197 134.52370397 199.10087197 132.4453125 198.23828125 C132.4453125 198.89828125 132.4453125 199.55828125 132.4453125 200.23828125 C128.8011351 202.66773285 126.73289978 202.400077 122.4453125 202.23828125 C123.1053125 200.58828125 123.7653125 198.93828125 124.4453125 197.23828125 C123.1253125 197.23828125 121.8053125 197.23828125 120.4453125 197.23828125 C120.4453125 196.57828125 120.4453125 195.91828125 120.4453125 195.23828125 C118.4653125 195.56828125 116.4853125 195.89828125 114.4453125 196.23828125 C114.7753125 195.24828125 115.1053125 194.25828125 115.4453125 193.23828125 C116.5590625 193.15578125 117.6728125 193.07328125 118.8203125 192.98828125 C120.0165625 192.74078125 121.2128125 192.49328125 122.4453125 192.23828125 C123.1053125 190.91828125 123.7653125 189.59828125 124.4453125 188.23828125 C121.4753125 187.57828125 118.5053125 186.91828125 115.4453125 186.23828125 C116.9303125 184.25828125 116.9303125 184.25828125 118.4453125 182.23828125 C115.8053125 181.90828125 113.1653125 181.57828125 110.4453125 181.23828125 C110.4453125 182.22828125 110.4453125 183.21828125 110.4453125 184.23828125 C111.1053125 184.23828125 111.7653125 184.23828125 112.4453125 184.23828125 C112.4453125 184.89828125 112.4453125 185.55828125 112.4453125 186.23828125 C111.3625 185.89796875 111.3625 185.89796875 110.2578125 185.55078125 C107.36679518 184.94196715 107.36679518 184.94196715 104.9453125 186.73828125 C102.4453125 188.23828125 102.4453125 188.23828125 100.0703125 188.05078125 C99.2040625 187.78265625 98.3378125 187.51453125 97.4453125 187.23828125 C96.1871875 186.88765625 94.9290625 186.53703125 93.6328125 186.17578125 C92.5809375 185.86640625 91.5290625 185.55703125 90.4453125 185.23828125 C90.4453125 185.89828125 90.4453125 186.55828125 90.4453125 187.23828125 C88.7953125 187.23828125 87.1453125 187.23828125 85.4453125 187.23828125 C85.4453125 186.24828125 85.4453125 185.25828125 85.4453125 184.23828125 C83.7953125 184.89828125 82.1453125 185.55828125 80.4453125 186.23828125 C79.7853125 185.57828125 79.1253125 184.91828125 78.4453125 184.23828125 C78.4453125 183.24828125 78.4453125 182.25828125 78.4453125 181.23828125 C79.1053125 181.23828125 79.7653125 181.23828125 80.4453125 181.23828125 C80.1153125 180.24828125 79.7853125 179.25828125 79.4453125 178.23828125 C78.7853125 178.23828125 78.1253125 178.23828125 77.4453125 178.23828125 C76.7853125 178.89828125 76.1253125 179.55828125 75.4453125 180.23828125 C73.0078125 179.48828125 73.0078125 179.48828125 70.4453125 178.23828125 C69.6328125 176.11328125 69.6328125 176.11328125 69.4453125 174.23828125 C67.4653125 173.90828125 65.4853125 173.57828125 63.4453125 173.23828125 C63.1153125 174.88828125 62.7853125 176.53828125 62.4453125 178.23828125 C61.7853125 178.23828125 61.1253125 178.23828125 60.4453125 178.23828125 C60.4453125 177.57828125 60.4453125 176.91828125 60.4453125 176.23828125 C58.4653125 175.90828125 56.4853125 175.57828125 54.4453125 175.23828125 C54.4453125 174.24828125 54.4453125 173.25828125 54.4453125 172.23828125 C52.7953125 172.56828125 51.1453125 172.89828125 49.4453125 173.23828125 C47.94710191 169.86730742 47.4453125 168.03386006 47.4453125 164.23828125 C46.1253125 164.23828125 44.8053125 164.23828125 43.4453125 164.23828125 C43.4453125 162.91828125 43.4453125 161.59828125 43.4453125 160.23828125 C41.7953125 160.23828125 40.1453125 160.23828125 38.4453125 160.23828125 C38.4453125 161.55828125 38.4453125 162.87828125 38.4453125 164.23828125 C36.7953125 163.90828125 35.1453125 163.57828125 33.4453125 163.23828125 C33.7753125 166.20828125 34.1053125 169.17828125 34.4453125 172.23828125 C32.1353125 171.90828125 29.8253125 171.57828125 27.4453125 171.23828125 C26.46410786 168.18564461 26.46410786 166.29091789 27.4453125 163.23828125 C25.4653125 162.90828125 23.4853125 162.57828125 21.4453125 162.23828125 C21.4453125 162.89828125 21.4453125 163.55828125 21.4453125 164.23828125 C20.5584375 164.05265625 19.6715625 163.86703125 18.7578125 163.67578125 C15.54624918 163.06301315 15.54624918 163.06301315 12.8203125 163.80078125 C10.4453125 164.23828125 10.4453125 164.23828125 8.1953125 163.67578125 C6.4453125 162.23828125 6.4453125 162.23828125 5.6953125 159.11328125 C5.6128125 158.16453125 5.5303125 157.21578125 5.4453125 156.23828125 C4.4553125 156.23828125 3.4653125 156.23828125 2.4453125 156.23828125 C2.4453125 156.89828125 2.4453125 157.55828125 2.4453125 158.23828125 C1.4553125 158.23828125 0.4653125 158.23828125 -0.5546875 158.23828125 C-0.5546875 158.89828125 -0.5546875 159.55828125 -0.5546875 160.23828125 C-1.8746875 160.23828125 -3.1946875 160.23828125 -4.5546875 160.23828125 C-4.8846875 158.25828125 -5.2146875 156.27828125 -5.5546875 154.23828125 C-6.6271875 154.42390625 -7.6996875 154.60953125 -8.8046875 154.80078125 C-11.95860296 155.16873805 -13.65287242 155.28293468 -16.5546875 154.23828125 C-16.8846875 155.88828125 -17.2146875 157.53828125 -17.5546875 159.23828125 C-16.8946875 159.56828125 -16.2346875 159.89828125 -15.5546875 160.23828125 C-21.3046875 161.36328125 -21.3046875 161.36328125 -23.5546875 160.23828125 C-24.8746875 160.23828125 -26.1946875 160.23828125 -27.5546875 160.23828125 C-27.8846875 161.55828125 -28.2146875 162.87828125 -28.5546875 164.23828125 C-29.8746875 164.23828125 -31.1946875 164.23828125 -32.5546875 164.23828125 C-32.8846875 162.25828125 -33.2146875 160.27828125 -33.5546875 158.23828125 C-34.4415625 158.46515625 -35.3284375 158.69203125 -36.2421875 158.92578125 C-40.13259374 159.29280071 -41.46909446 158.50709966 -44.5546875 156.23828125 C-44.8434375 157.04265625 -45.1321875 157.84703125 -45.4296875 158.67578125 C-46.5546875 161.23828125 -46.5546875 161.23828125 -48.5546875 162.23828125 C-48.63473232 165.76025335 -48.59474452 168.85809594 -47.5546875 172.23828125 C-49.2046875 172.23828125 -50.8546875 172.23828125 -52.5546875 172.23828125 C-51.91488901 174.27069852 -51.91488901 174.27069852 -50.5546875 176.23828125 C-47.99948829 177.04999353 -47.99948829 177.04999353 -45.5546875 177.23828125 C-47.85912784 179.94029276 -49.51853532 180.69743188 -52.9921875 181.30078125 C-56.18784953 181.86853846 -58.70255016 182.67252931 -61.5546875 184.23828125 C-61.5546875 185.55828125 -61.5546875 186.87828125 -61.5546875 188.23828125 C-62.2146875 188.23828125 -62.8746875 188.23828125 -63.5546875 188.23828125 C-63.5546875 189.55828125 -63.5546875 190.87828125 -63.5546875 192.23828125 C-66.5246875 191.24828125 -66.5246875 191.24828125 -69.5546875 190.23828125 C-69.5546875 191.22828125 -69.5546875 192.21828125 -69.5546875 193.23828125 C-70.2146875 193.23828125 -70.8746875 193.23828125 -71.5546875 193.23828125 C-71.2246875 194.22828125 -70.8946875 195.21828125 -70.5546875 196.23828125 C-71.19319538 198.5794768 -71.86112327 200.91280118 -72.5546875 203.23828125 C-72.5546875 204.55828125 -72.5546875 205.87828125 -72.5546875 207.23828125 C-73.25335938 207.21507812 -73.95203125 207.191875 -74.671875 207.16796875 C-75.58195313 207.14992188 -76.49203125 207.131875 -77.4296875 207.11328125 C-78.33460938 207.09007812 -79.23953125 207.066875 -80.171875 207.04296875 C-82.74275744 206.99503289 -82.74275744 206.99503289 -84.5546875 209.23828125 C-84.5546875 207.58828125 -84.5546875 205.93828125 -84.5546875 204.23828125 C-85.6065625 204.09390625 -86.6584375 203.94953125 -87.7421875 203.80078125 C-90.71272179 203.3625057 -93.61906352 202.85630735 -96.5546875 202.23828125 C-97.4828125 202.05265625 -98.4109375 201.86703125 -99.3671875 201.67578125 C-100.0890625 201.53140625 -100.8109375 201.38703125 -101.5546875 201.23828125 C-101.5546875 202.88828125 -101.5546875 204.53828125 -101.5546875 206.23828125 C-99.5746875 205.90828125 -97.5946875 205.57828125 -95.5546875 205.23828125 C-95.8846875 206.22828125 -96.2146875 207.21828125 -96.5546875 208.23828125 C-101.5046875 209.22828125 -101.5046875 209.22828125 -106.5546875 210.23828125 C-106.6371875 211.31078125 -106.7196875 212.38328125 -106.8046875 213.48828125 C-107.60945652 217.51212635 -108.43198624 218.71997378 -111.5546875 221.23828125 C-110.2346875 221.23828125 -108.9146875 221.23828125 -107.5546875 221.23828125 C-107.8846875 222.22828125 -108.2146875 223.21828125 -108.5546875 224.23828125 C-109.97124543 224.26552275 -111.38795795 224.28478592 -112.8046875 224.30078125 C-113.98804688 224.31818359 -113.98804688 224.31818359 -115.1953125 224.3359375 C-117.46682326 224.24191801 -119.36063555 223.78679424 -121.5546875 223.23828125 C-124.23618743 223.62395256 -124.23618743 223.62395256 -126.5546875 224.23828125 C-126.5546875 224.89828125 -126.5546875 225.55828125 -126.5546875 226.23828125 C-128.2046875 226.56828125 -129.8546875 226.89828125 -131.5546875 227.23828125 C-131.5546875 228.88828125 -131.5546875 230.53828125 -131.5546875 232.23828125 C-132.8746875 232.23828125 -134.1946875 232.23828125 -135.5546875 232.23828125 C-135.8846875 233.88828125 -136.2146875 235.53828125 -136.5546875 237.23828125 C-134.9046875 236.90828125 -133.2546875 236.57828125 -131.5546875 236.23828125 C-130.5887218 238.84638864 -130.52697836 240.13248272 -131.2421875 242.86328125 C-132.76341826 245.61598453 -133.81507701 245.91266327 -136.5546875 247.23828125 C-137.35997639 249.28828996 -137.35997639 249.28828996 -137.5546875 251.23828125 C-136.9565625 251.05265625 -136.3584375 250.86703125 -135.7421875 250.67578125 C-133.5546875 250.23828125 -133.5546875 250.23828125 -130.5546875 251.23828125 C-130.5546875 252.22828125 -130.5546875 253.21828125 -130.5546875 254.23828125 C-132.25625 254.42390625 -132.25625 254.42390625 -133.9921875 254.61328125 C-135.1678125 254.81953125 -136.3434375 255.02578125 -137.5546875 255.23828125 C-137.8846875 255.89828125 -138.2146875 256.55828125 -138.5546875 257.23828125 C-137.8946875 257.56828125 -137.2346875 257.89828125 -136.5546875 258.23828125 C-136.8846875 259.22828125 -137.2146875 260.21828125 -137.5546875 261.23828125 C-138.8746875 261.23828125 -140.1946875 261.23828125 -141.5546875 261.23828125 C-141.5546875 262.22828125 -141.5546875 263.21828125 -141.5546875 264.23828125 C-142.8746875 264.23828125 -144.1946875 264.23828125 -145.5546875 264.23828125 C-145.5546875 265.22828125 -145.5546875 266.21828125 -145.5546875 267.23828125 C-150.3046875 269.23828125 -150.3046875 269.23828125 -152.5546875 269.23828125 C-153.2146875 270.22828125 -153.8746875 271.21828125 -154.5546875 272.23828125 C-155.2146875 272.23828125 -155.8746875 272.23828125 -156.5546875 272.23828125 C-156.8846875 273.22828125 -157.2146875 274.21828125 -157.5546875 275.23828125 C-161.0481472 276.9850111 -163.62314318 278.23828125 -167.5546875 278.23828125 C-167.8846875 276.91828125 -168.2146875 275.59828125 -168.5546875 274.23828125 C-170.36761839 274.37865646 -172.1800318 274.52573014 -173.9921875 274.67578125 C-175.00152344 274.75699219 -176.01085937 274.83820313 -177.05078125 274.921875 C-179.49109529 274.97039593 -179.49109529 274.97039593 -180.5546875 276.23828125 C-182.88766183 276.27921062 -185.22173975 276.28069848 -187.5546875 276.23828125 C-187.5546875 276.89828125 -187.5546875 277.55828125 -187.5546875 278.23828125 C-189.03172962 279.49055609 -190.51296149 280.73994647 -192.046875 281.921875 C-193.82231694 283.35592216 -193.82231694 283.35592216 -195.5546875 286.23828125 C-196.5446875 286.23828125 -197.5346875 286.23828125 -198.5546875 286.23828125 C-198.5546875 287.22828125 -198.5546875 288.21828125 -198.5546875 289.23828125 C-197.8946875 289.56828125 -197.2346875 289.89828125 -196.5546875 290.23828125 C-196.8846875 291.55828125 -197.2146875 292.87828125 -197.5546875 294.23828125 C-199.8646875 294.89828125 -202.1746875 295.55828125 -204.5546875 296.23828125 C-204.5546875 296.89828125 -204.5546875 297.55828125 -204.5546875 298.23828125 C-203.2346875 298.23828125 -201.9146875 298.23828125 -200.5546875 298.23828125 C-200.5546875 298.89828125 -200.5546875 299.55828125 -200.5546875 300.23828125 C-205.90474766 303.52595994 -210.23836922 305.835112 -216.5546875 306.23828125 C-216.8846875 307.22828125 -217.2146875 308.21828125 -217.5546875 309.23828125 C-219.38683266 306.49006351 -220.00767956 305.01678751 -220.73828125 301.90625 C-220.94235596 301.0385498 -221.14643066 300.17084961 -221.35668945 299.27685547 C-222.4719215 294.27352092 -223.53519397 289.26198065 -224.5546875 284.23828125 C-224.72709961 283.42020996 -224.89951172 282.60213867 -225.07714844 281.75927734 C-230.89429284 253.00613634 -229.68828672 219.81042402 -223.5546875 191.23828125 C-223.36213379 190.32804199 -223.16958008 189.41780273 -222.97119141 188.47998047 C-221.70554448 182.66984693 -220.22469182 176.94473707 -218.5546875 171.23828125 C-218.33586914 170.48820801 -218.11705078 169.73813477 -217.89160156 168.96533203 C-204.5604354 124.29915337 -176.42236087 81.92346974 -139.5546875 53.23828125 C-138.92933105 52.74183105 -138.30397461 52.24538086 -137.65966797 51.73388672 C-128.03125622 44.09043029 -118.31750815 37.18245344 -107.5546875 31.23828125 C-106.78705078 30.80805664 -106.01941406 30.37783203 -105.22851562 29.93457031 C-73.26024382 12.13089641 -36.85766862 0.33617105 0 0 Z " fill="#FE1C00" transform="translate(288.5546875,60.76171875)"/>
<path d="M0 0 C3.76468392 0.38415142 6.7536987 0.88556 10.203125 2.48828125 C14.9606396 4.60238001 19.80721586 4.72065461 24.94726562 4.99609375 C28.72203254 5.31262193 30.63102301 5.64424369 33.3984375 8.3125 C34.74298764 10.56872073 35.9376968 12.7015139 36.9375 15.125 C38.87009526 19.70625171 40.94320939 24.20970444 43.046875 28.71484375 C44 31 44 31 44 33 C44.5775 33.226875 45.155 33.45375 45.75 33.6875 C49.72518769 36.00635949 51.64595531 38.91703977 53.0625 43.25 C53.371875 44.1575 53.68125 45.065 54 46 C54.99 46.33 55.98 46.66 57 47 C58.16796875 49.6171875 58.16796875 49.6171875 59.1875 52.875 C59.53167969 53.94492187 59.87585938 55.01484375 60.23046875 56.1171875 C61 59 61 59 61 62 C61.66 62 62.32 62 63 62 C64.23076923 67.41538462 64.23076923 67.41538462 63.0625 70.375 C62.711875 70.91125 62.36125 71.4475 62 72 C62.99 72 63.98 72 65 72 C65 76.62 65 81.24 65 86 C64.01 86.495 64.01 86.495 63 87 C62.1875437 88.45671988 61.42287981 89.94039126 60.6875 91.4375 C58.32542997 95.82914927 58.32542997 95.82914927 55.5 97.3125 C54.675 97.539375 53.85 97.76625 53 98 C52.319375 98.61875 51.63875 99.2375 50.9375 99.875 C47.1743513 102.59727779 43.34887368 103.70863848 38.9375 105.0703125 C36.22816234 105.92778905 33.62312227 106.910247 31 108 C31 108.66 31 109.32 31 110 C26.80855958 111.67657617 22.95244295 113.06139223 18.5 113.8125 C14.00413938 114.71167212 11.28451385 116.79752152 7.79296875 119.67578125 C5.60442997 121.29215303 3.67505918 121.6757504 1 122 C0.67 122.66 0.34 123.32 0 124 C-45.22276695 109.88793088 -89.11763804 83.28113534 -118 45 C-118.33 44.34 -118.66 43.68 -119 43 C-116 41 -116 41 -113 41 C-113.020625 39.700625 -113.04125 38.40125 -113.0625 37.0625 C-113.08399454 35.70834367 -113.07148199 34.35243917 -113 33 C-112 32 -112 32 -109.4375 31.9375 C-108.2309375 31.9684375 -108.2309375 31.9684375 -107 32 C-107 32.66 -107 33.32 -107 34 C-106.34 34 -105.68 34 -105 34 C-105 34.99 -105 35.98 -105 37 C-104.01 37.33 -103.02 37.66 -102 38 C-102 39.65 -102 41.3 -102 43 C-101.34 43 -100.68 43 -100 43 C-100.309375 41.948125 -100.61875 40.89625 -100.9375 39.8125 C-101.75685094 36.87247604 -102.45483931 33.99838377 -103 31 C-102.01 31 -101.02 31 -100 31 C-100 30.01 -100 29.02 -100 28 C-99.01 28 -98.02 28 -97 28 C-96.67 26.35 -96.34 24.7 -96 23 C-94.84371094 23.14308594 -94.84371094 23.14308594 -93.6640625 23.2890625 C-92.66117188 23.39992188 -91.65828125 23.51078125 -90.625 23.625 C-89.62726563 23.74101562 -88.62953125 23.85703125 -87.6015625 23.9765625 C-86.74304688 23.98429687 -85.88453125 23.99203125 -85 24 C-84.34 23.34 -83.68 22.68 -83 22 C-82.01 22 -81.02 22 -80 22 C-80 22.66 -80 23.32 -80 24 C-74.21017237 21.74209336 -70.3284128 19.56888017 -66 15 C-63.4375 13.5625 -63.4375 13.5625 -61 13 C-60.39800781 13.31582031 -59.79601562 13.63164062 -59.17578125 13.95703125 C-56.53114336 15.22474816 -54.66550014 15.20172369 -51.75 15.125 C-50.41195312 15.09792969 -50.41195312 15.09792969 -49.046875 15.0703125 C-48.37140625 15.04710937 -47.6959375 15.02390625 -47 15 C-47 15.66 -47 16.32 -47 17 C-48.485 17.495 -48.485 17.495 -50 18 C-50 19.32 -50 20.64 -50 22 C-51.65 22.33 -53.3 22.66 -55 23 C-55 23.66 -55 24.32 -55 25 C-53.515 25.495 -53.515 25.495 -52 26 C-52 26.66 -52 27.32 -52 28 C-47.05 28.99 -47.05 28.99 -42 30 C-42 30.99 -42 31.98 -42 33 C-41.01 33 -40.02 33 -39 33 C-39 33.66 -39 34.32 -39 35 C-37.68 35 -36.36 35 -35 35 C-35 34.34 -35 33.68 -35 33 C-33.02 33 -31.04 33 -29 33 C-29.33 33.99 -29.66 34.98 -30 36 C-29.071875 35.360625 -28.14375 34.72125 -27.1875 34.0625 C-24 32 -24 32 -21 31 C-20.26676204 28.98491642 -20.26676204 28.98491642 -20 27 C-19.505 28.98 -19.505 28.98 -19 31 C-18.34 31 -17.68 31 -17 31 C-16.979375 29.9275 -16.95875 28.855 -16.9375 27.75 C-16 24 -16 24 -14.4453125 22.64453125 C-9.84363718 20 -9.84363718 20 -7 20 C-6.16180842 21.62249941 -5.3295884 23.24808497 -4.5 24.875 C-3.80390625 26.23238281 -3.80390625 26.23238281 -3.09375 27.6171875 C-2 30 -2 30 -2 32 C-5.375 31.25 -5.375 31.25 -9 30 C-9.99 28.02 -9.99 28.02 -11 26 C-11.99 30.455 -11.99 30.455 -13 35 C-12.34 35 -11.68 35 -11 35 C-11 35.66 -11 36.32 -11 37 C-10.01 37 -9.02 37 -8 37 C-8 38.32 -8 39.64 -8 41 C-7.34 41 -6.68 41 -6 41 C-5.67 40.01 -5.34 39.02 -5 38 C-4.01 38 -3.02 38 -2 38 C-1.7834375 36.9171875 -1.7834375 36.9171875 -1.5625 35.8125 C-1.04166667 33.20833333 -0.52083333 30.60416667 0 28 C3.3 28.99 6.6 29.98 10 31 C10 30.34 10 29.68 10 29 C8.948125 28.814375 7.89625 28.62875 6.8125 28.4375 C2.80061924 27.30636121 1.19962646 25.24049805 -1.0546875 21.8515625 C-2.07720907 19.84877231 -2.72374131 18.23680426 -3 16 C-2.34 15.01 -1.68 14.02 -1 13 C-1.66 13 -2.32 13 -3 13 C-2.625 10.5625 -2.625 10.5625 -2 8 C-1.34 7.67 -0.68 7.34 0 7 C0 4.69 0 2.38 0 0 Z " fill="#FB5800" transform="translate(232,408)"/>
<path d="M0 0 C0.495 1.485 0.495 1.485 1 3 C1.99 3.66 2.98 4.32 4 5 C4 5.99 4 6.98 4 8 C4.5671875 7.67515625 5.134375 7.3503125 5.71875 7.015625 C8.18710174 5.91670128 9.81603219 5.73161666 12.5 5.75 C13.2528125 5.74484375 14.005625 5.7396875 14.78125 5.734375 C17.2296721 6.02749596 18.87304054 6.78183231 21 8 C21 8.66 21 9.32 21 10 C21.99 10.495 21.99 10.495 23 11 C22.34 11.66 21.68 12.32 21 13 C22.65 13.33 24.3 13.66 26 14 C26 14.99 26 15.98 26 17 C26.66 17 27.32 17 28 17 C28 16.01 28 15.02 28 14 C29.65 14.33 31.3 14.66 33 15 C32.319375 14.236875 31.63875 13.47375 30.9375 12.6875 C30.298125 11.800625 29.65875 10.91375 29 10 C29.33 9.01 29.66 8.02 30 7 C30.99 7 31.98 7 33 7 C33.5775 7.639375 34.155 8.27875 34.75 8.9375 C37.70966498 11.65052623 40.07507941 11.69808303 44 12 C44 12.66 44 13.32 44 14 C44.70125 14.2475 45.4025 14.495 46.125 14.75 C49.37002459 16.16088026 52.10316737 17.97895398 55 20 C54.67 21.32 54.34 22.64 54 24 C53.01 24 52.02 24 51 24 C51.33 24.99 51.66 25.98 52 27 C52.99 27.33 53.98 27.66 55 28 C47.73541879 38.08253694 40.54346792 47.95801986 32 57 C30.82770322 58.34929564 29.66084179 59.70333672 28.5 61.0625 C21.82927516 68.68181415 14.61572859 75.44593497 6.65185547 81.69873047 C5.48722976 82.61617874 4.32786739 83.54032782 3.17236328 84.46923828 C-48.3858904 125.87853444 -48.3858904 125.87853444 -70.7734375 123.734375 C-71.87558594 123.37085938 -71.87558594 123.37085938 -73 123 C-73.33 122.34 -73.66 121.68 -74 121 C-76.34907875 120.31068656 -76.34907875 120.31068656 -79.0625 119.875 C-79.98160156 119.70742188 -80.90070313 119.53984375 -81.84765625 119.3671875 C-82.91306641 119.18542969 -82.91306641 119.18542969 -84 119 C-84 118.01 -84 117.02 -84 116 C-88.72396761 115.28056106 -88.72396761 115.28056106 -93.48046875 114.8515625 C-99.12925804 114.49263792 -102.47925424 113.67967678 -107 110 C-108.3303125 108.948125 -108.3303125 108.948125 -109.6875 107.875 C-110.450625 107.25625 -111.21375 106.6375 -112 106 C-112.99 105.34 -113.98 104.68 -115 104 C-115.83493549 101.37039891 -116.49287681 98.87486341 -117.0625 96.1875 C-117.23168945 95.42211914 -117.40087891 94.65673828 -117.57519531 93.86816406 C-122.7778707 69.83962284 -122.7778707 69.83962284 -121 61 C-118.56640625 58.875 -118.56640625 58.875 -116 57 C-115.04014913 55.11581105 -115.04014913 55.11581105 -114.5 53.0625 C-112.51149472 48.10361338 -109.2961368 44.82914438 -105.5625 41.125 C-105.00046875 40.56562744 -104.4384375 40.00625488 -103.859375 39.42993164 C-100.77194586 36.45050829 -97.79111226 34.06787941 -94 32 C-93.01 31.34 -92.02 30.68 -91 30 C-88.8269043 29.68115234 -88.8269043 29.68115234 -86.32421875 29.5859375 C-85.41349609 29.54726563 -84.50277344 29.50859375 -83.56445312 29.46875 C-82.14036133 29.42234375 -82.14036133 29.42234375 -80.6875 29.375 C-79.74970703 29.33632813 -78.81191406 29.29765625 -77.84570312 29.2578125 C-74.06407492 29.10857277 -70.30447124 28.99658281 -66.51953125 29.0390625 C-63.8714378 29.12463664 -63.8714378 29.12463664 -61 28 C-61.495 25.03 -61.495 25.03 -62 22 C-51.68114275 13.12677976 -43.58661936 10.26226501 -30 11 C-28.13601563 11.0309375 -28.13601563 11.0309375 -26.234375 11.0625 C-15.77443005 11.41262368 -15.77443005 11.41262368 -12.625 14.4375 C-11 17 -11 17 -11 19 C-5.92722201 20.0145556 -2.80364152 19.89911409 2 18 C2.66 18 3.32 18 4 18 C4 17.34 4 16.68 4 16 C3.43152344 16.10441406 2.86304688 16.20882813 2.27734375 16.31640625 C-0.39432499 16.59739979 -2.37705445 16.63498524 -5 16 C-7.87124747 13.33161241 -9.94761694 10.32604843 -12 7 C-5.54347826 -1.84782609 -5.54347826 -1.84782609 0 0 Z " fill="#FD5B00" transform="translate(448,405)"/>
<path d="M0 0 C0.99 0 1.98 0 3 0 C3 2.31 3 4.62 3 7 C3.99 6.34 4.98 5.68 6 5 C6.99 5 7.98 5 9 5 C9 6.65 9 8.3 9 10 C15.08408472 10.19814261 15.08408472 10.19814261 21 9 C21.33 7.68 21.66 6.36 22 5 C22.99 5 23.98 5 25 5 C25 4.34 25 3.68 25 3 C24.01 3 23.02 3 22 3 C22 2.34 22 1.68 22 1 C24.29141286 0.94615479 26.58318188 0.90727913 28.875 0.875 C30.78925781 0.84019531 30.78925781 0.84019531 32.7421875 0.8046875 C36 1 36 1 38 3 C36.02 3.33 34.04 3.66 32 4 C32.495 5.485 32.495 5.485 33 7 C35.06168985 7.19620767 37.12440998 7.38160753 39.1875 7.5625 C40.33605469 7.66691406 41.48460937 7.77132813 42.66796875 7.87890625 C45.68631199 7.98859985 48.08923936 7.74002389 51 7 C50.65151766 9.57876935 50.36448283 11.50123403 48.8125 13.625 C46.39006321 15.46271067 43.71441415 16.64279293 41 18 C40.67 18.66 40.34 19.32 40 20 C38.08364783 20.05423638 36.16685075 20.09289963 34.25 20.125 C33.18265625 20.14820313 32.1153125 20.17140625 31.015625 20.1953125 C28.07529894 20.00487687 26.47638122 19.52670104 24 18 C24 17.34 24 16.68 24 16 C23.236875 16.33 22.47375 16.66 21.6875 17 C19 18 19 18 16 18 C16 18.66 16 19.32 16 20 C13.03 20.99 10.06 21.98 7 23 C7 23.66 7 24.32 7 25 C6.18015625 25.10957031 5.3603125 25.21914063 4.515625 25.33203125 C3.43796875 25.49058594 2.3603125 25.64914062 1.25 25.8125 C0.18265625 25.96332031 -0.8846875 26.11414063 -1.984375 26.26953125 C-5.09170813 27.02221427 -6.55539462 28.02716057 -9 30 C-11.75 30.1875 -11.75 30.1875 -14 30 C-14 29.34 -14 28.68 -14 28 C-17.54818438 29.18244224 -17.54818438 29.18244224 -20.33984375 31.546875 C-23.2422177 34.08730585 -26.50049123 33.45442118 -30.19140625 33.37109375 C-34.26941084 32.83227534 -36.67232463 31.36634693 -40 29 C-40 28.34 -40 27.68 -40 27 C-40.99 26.67 -41.98 26.34 -43 26 C-43 25.34 -43 24.68 -43 24 C-42.45730469 23.74605469 -41.91460937 23.49210937 -41.35546875 23.23046875 C-40.64003906 22.88628906 -39.92460937 22.54210937 -39.1875 22.1875 C-38.47980469 21.85105469 -37.77210938 21.51460938 -37.04296875 21.16796875 C-34.95696638 20.09581564 -34.95696638 20.09581564 -33.4453125 18.43359375 C-29.42091154 14.44182307 -21.44674041 14.15292128 -16 13.8125 C-11.97481507 14.06407406 -8.59382132 15.20308934 -5 17 C-5 13.04 -5 9.08 -5 5 C-4.01 5 -3.02 5 -2 5 C-1.855625 4.360625 -1.71125 3.72125 -1.5625 3.0625 C-1 1 -1 1 0 0 Z " fill="#F44B00" transform="translate(387,387)"/>
<path d="M0 0 C0.66 0 1.32 0 2 0 C2.391875 0.639375 2.78375 1.27875 3.1875 1.9375 C5.78167435 4.88949151 8.2013431 4.71330891 12 5 C11.67 5.99 11.34 6.98 11 8 C13.97180943 9.89865603 16.51460083 11.35455571 20 12 C20.33 10.02 20.66 8.04 21 6 C21.66 6 22.32 6 23 6 C22.45653119 9.9595585 22.15204937 12.10057393 18.93359375 14.61328125 C16.64504394 15.91735056 14.48092318 17.1113111 12 18 C11.34 17.67 10.68 17.34 10 17 C10 18.65 10 20.3 10 22 C9.34 22 8.68 22 8 22 C8.268125 23.0725 8.53625 24.145 8.8125 25.25 C8.874375 26.4875 8.93625 27.725 9 29 C6.6875 31.4375 6.6875 31.4375 4 33 C3.34 33 2.68 33 2 33 C2 32.34 2 31.68 2 31 C0.35 30.67 -1.3 30.34 -3 30 C-3 30.66 -3 31.32 -3 32 C-4.32 32 -5.64 32 -7 32 C-7 31.34 -7 30.68 -7 30 C-7.99 30 -8.98 30 -10 30 C-10 29.01 -10 28.02 -10 27 C-13.63 26.67 -17.26 26.34 -21 26 C-20.67 25.01 -20.34 24.02 -20 23 C-21.32 22.67 -22.64 22.34 -24 22 C-23.505 20.515 -23.505 20.515 -23 19 C-20.9375 18.3125 -20.9375 18.3125 -19 18 C-18.67 16.68 -18.34 15.36 -18 14 C-17.01 14 -16.02 14 -15 14 C-14.814375 13.236875 -14.62875 12.47375 -14.4375 11.6875 C-12.71398772 8.46528139 -11.21873535 8.08989557 -7.87890625 6.890625 C-5.67400394 5.8454738 -4.36370262 4.57518973 -2.6875 2.8125 C-1.800625 1.884375 -0.91375 0.95625 0 0 Z " fill="#0A0300" transform="translate(200,411)"/>
<path d="M0 0 C0.66 5.61 1.32 11.22 2 17 C0.88625 17.53625 -0.2275 18.0725 -1.375 18.625 C-4.74673111 20.3289284 -8.08218142 22.08528955 -11.375 23.9375 C-12.20773437 24.40027344 -13.04046875 24.86304688 -13.8984375 25.33984375 C-16.40558385 27.32039616 -17.07142585 28.98468503 -18 32 C-21.62743007 31.09314248 -23.41746155 29.85057663 -25.375 26.75 C-27.21692651 23.1481761 -27.25119114 20.92039891 -26 17 C-23.86191537 11.44097996 -23.86191537 11.44097996 -20.3125 9.625 C-19.549375 9.41875 -18.78625 9.2125 -18 9 C-18 9.99 -18 10.98 -18 12 C-17.34 11.67 -16.68 11.34 -16 11 C-16 9.35 -16 7.7 -16 6 C-15.01 6 -14.02 6 -13 6 C-13 5.34 -13 4.68 -13 4 C-10.03 4.495 -10.03 4.495 -7 5 C-7 5.66 -7 6.32 -7 7 C-6.34 7 -5.68 7 -5 7 C-5.33 5.02 -5.66 3.04 -6 1 C-3.92446352 0.4465236 -2.15634036 0 0 0 Z " fill="#F64900" transform="translate(317,387)"/>
<path d="M0 0 C0.99 0 1.98 0 3 0 C5.69723439 4.04585158 5.46646126 7.23119493 4.66552734 11.98535156 C4.22198026 14.04727301 3.7180536 16.08381559 3.1875 18.125 C3.02185547 18.81464844 2.85621094 19.50429688 2.68554688 20.21484375 C1.66690713 24.23558778 0.48154758 27.65219041 -2 31 C-2.66 31 -3.32 31 -4 31 C-9 26 -9 26 -10.49609375 24.484375 C-13.36090686 21.98367482 -15.00173451 20.95419565 -18.89453125 21.1328125 C-21.64526524 21.63422999 -24.31106937 22.23659655 -27 23 C-27 22.01 -27 21.02 -27 20 C-26.01 19.67 -25.02 19.34 -24 19 C-23.67 18.34 -23.34 17.68 -23 17 C-22.34 17 -21.68 17 -21 17 C-21.33 16.01 -21.66 15.02 -22 14 C-18.46553766 11.90817535 -15.08294339 9.97923828 -11.25 8.5 C-8.01182372 7.0054571 -6.77209467 6.02298502 -5 3 C-3.68 3.66 -2.36 4.32 -1 5 C-0.67 3.35 -0.34 1.7 0 0 Z " fill="#F44200" transform="translate(264,361)"/>
<path d="M0 0 C1.56571188 2.19199663 1.98971276 3.61937205 2.0625 6.3125 C0.72034327 9.70736703 -1.24363501 11.35781212 -3.88671875 13.8203125 C-7.3783252 17.42163671 -10.17648474 21.54532713 -13.08203125 25.62109375 C-13.71496094 26.40613281 -14.34789062 27.19117188 -15 28 C-15.66 28 -16.32 28 -17 28 C-17.10806144 25.08234109 -17.18732877 22.16868875 -17.25 19.25 C-17.28351563 18.425 -17.31703125 17.6 -17.3515625 16.75 C-17.45083139 10.59532863 -17.45083139 10.59532863 -15.171875 7.5859375 C-14.45515625 7.06257813 -13.7384375 6.53921875 -13 6 C-11.515 4.700625 -11.515 4.700625 -10 3.375 C-4.03703704 -1.34567901 -4.03703704 -1.34567901 0 0 Z " fill="#F54F00" transform="translate(327,419)"/>
<path d="M0 0 C1.03125 0.12375 2.0625 0.2475 3.125 0.375 C6 1 6 1 7.875 3.0625 C8.431875 4.0215625 8.431875 4.0215625 9 5 C8.34 5 7.68 5 7 5 C7.33 5.66 7.66 6.32 8 7 C10.12576782 7.46651207 10.12576782 7.46651207 12.5625 7.625 C13.38878906 7.69976562 14.21507812 7.77453125 15.06640625 7.8515625 C15.70449219 7.90054687 16.34257812 7.94953125 17 8 C16.67 8.99 16.34 9.98 16 11 C11.83861737 11.08159574 8.0527516 10.98248524 4 10 C3.67 10.99 3.34 11.98 3 13 C2.67 11.68 2.34 10.36 2 9 C0.02463255 9.34786708 0.02463255 9.34786708 -2 10 C-2.33 10.66 -2.66 11.32 -3 12 C-4.65 11.67 -6.3 11.34 -8 11 C-8.33 9.02 -8.66 7.04 -9 5 C-7.02 4.67 -5.04 4.34 -3 4 C-4.98 3.01 -6.96 2.02 -9 1 C-9 0.34 -9 -0.32 -9 -1 C-5.30848068 -2.36722938 -3.52870887 -1.5123038 0 0 Z " fill="#160700" transform="translate(174,438)"/>
<path d="M0 0 C0.33 0.66 0.66 1.32 1 2 C2.32 2 3.64 2 5 2 C5.33 2.66 5.66 3.32 6 4 C6.99 4.33 7.98 4.66 9 5 C9 7 9 7 7.5 8.625 C7.005 9.07875 6.51 9.5325 6 10 C7.65 10 9.3 10 11 10 C11.33 12.64 11.66 15.28 12 18 C11.01 18 10.02 18 9 18 C9 17.34 9 16.68 9 16 C8.5875 16.495 8.175 16.99 7.75 17.5 C6 19 6 19 2 19 C0.02 14.71 -1.96 10.42 -4 6 C-3.01 5.67 -2.02 5.34 -1 5 C-0.67 3.35 -0.34 1.7 0 0 Z " fill="#ED3F00" transform="translate(85,393)"/>
<path d="M0 0 C0.99 0 1.98 0 3 0 C3.33 2.31 3.66 4.62 4 7 C4.86625 6.773125 5.7325 6.54625 6.625 6.3125 C10.68338409 5.9367237 12.55166676 6.94742069 16 9 C15.67 10.65 15.34 12.3 15 14 C12.1875 14.625 12.1875 14.625 9 15 C8.01 14.34 7.02 13.68 6 13 C3.15243189 13.18011726 0.40839997 13.64002043 -2.40625 14.1015625 C-5 14 -5 14 -6.84375 12.0234375 C-7.2253125 11.35570312 -7.606875 10.68796875 -8 10 C-7 9 -7 9 -4.4375 8.9375 C-3.633125 8.958125 -2.82875 8.97875 -2 9 C-1.814375 8.071875 -1.814375 8.071875 -1.625 7.125 C-1 5 -1 5 1 3 C0.67 2.01 0.34 1.02 0 0 Z " fill="#EB4500" transform="translate(169,401)"/>
<path d="M0 0 C2.16874252 0.50603992 3.99967627 0.99983813 6 2 C5.67 4.31 5.34 6.62 5 9 C6.32 9 7.64 9 9 9 C9 11 9 11 7.4609375 12.796875 C5.37540556 14.74962026 3.42866336 16.48970218 1 18 C-2.5 17.4375 -2.5 17.4375 -5 16 C-5.520895 10.89522901 -5.60263447 7.20252992 -2.5 2.9375 C-1.675 1.968125 -0.85 0.99875 0 0 Z " fill="#F04500" transform="translate(284,384)"/>
<path d="M0 0 C0.391875 0.639375 0.78375 1.27875 1.1875 1.9375 C3.78167435 4.88949151 6.2013431 4.71330891 10 5 C9.67 5.99 9.34 6.98 9 8 C11.97180943 9.89865603 14.51460083 11.35455571 18 12 C18.33 10.02 18.66 8.04 19 6 C19.66 6 20.32 6 21 6 C20.46307182 9.91190528 20.13680946 12.08120879 17.00390625 14.61328125 C10.93206883 18.15269387 10.93206883 18.15269387 7.7109375 17.625 C6.86402344 17.315625 6.86402344 17.315625 6 17 C6 16.01 6 15.02 6 14 C7.32 14 8.64 14 10 14 C10 13.01 10 12.02 10 11 C8.35 11 6.7 11 5 11 C5 10.34 5 9.68 5 9 C2.36 9.33 -0.28 9.66 -3 10 C-3 8.35 -3 6.7 -3 5 C-3.99 4.67 -4.98 4.34 -6 4 C-2.25 0 -2.25 0 0 0 Z " fill="#CB3F00" transform="translate(202,411)"/>
<path d="M0 0 C0.66 0 1.32 0 2 0 C2 0.66 2 1.32 2 2 C5.465 1.505 5.465 1.505 9 1 C8.67 3.64 8.34 6.28 8 9 C7.01 9 6.02 9 5 9 C4.67 10.98 4.34 12.96 4 15 C-0.7517398 14.56802365 -2.92000054 13.67230705 -6 10 C-5.67 9.67 -5.34 9.34 -5 9 C-5.99 8.34 -6.98 7.68 -8 7 C-5.03 6.34 -2.06 5.68 1 5 C0.67 3.35 0.34 1.7 0 0 Z " fill="#0C0300" transform="translate(216,408)"/>
<path d="M0 0 C0.53625 0.309375 1.0725 0.61875 1.625 0.9375 C4.3984957 2.17827439 7.00042837 2.5909675 10 3 C8.79618552 5.49361571 7.54571278 7.68143083 6 10 C5.01 10 4.02 10 3 10 C3 9.34 3 8.68 3 8 C2.38125 8.53625 1.7625 9.0725 1.125 9.625 C-3.51545685 11.66680101 -7.23958131 10.28485087 -12 9 C-10.60387736 6.20775471 -8.69511726 5.55717886 -6 4 C-3.99419671 2.67541292 -1.99284138 1.3440093 0 0 Z " fill="#2F0E00" transform="translate(149,422)"/>
<path d="M0 0 C3.125 0.375 3.125 0.375 6 1 C5.52060632 5.71403788 5.03165952 9.66579301 3 14 C0.03 13.505 0.03 13.505 -3 13 C-3.33 11.35 -3.66 9.7 -4 8 C-3.34 7.67 -2.68 7.34 -2 7 C-2.66 6.67 -3.32 6.34 -4 6 C-4 2.99472353 -2.05564773 2.05564773 0 0 Z " fill="#1C0700" transform="translate(529,354)"/>
<path d="M0 0 C0.99 0.33 1.98 0.66 3 1 C4 7.625 4 7.625 4 11 C1.46815512 13.35723489 0.52809907 14 -3 14 C-3.103125 13.401875 -3.20625 12.80375 -3.3125 12.1875 C-4.08876455 9.71756736 -5.07088921 8.67748765 -7 7 C-6.67 6.01 -6.34 5.02 -6 4 C-4.34795544 3.29788106 -2.68076231 2.63028587 -1 2 C-0.67 1.34 -0.34 0.68 0 0 Z " fill="#EB3400" transform="translate(124,325)"/>
<path d="M0 0 C0.66 0 1.32 0 2 0 C2 0.66 2 1.32 2 2 C2.99 2.33 3.98 2.66 5 3 C4.814375 3.763125 4.62875 4.52625 4.4375 5.3125 C3.77180827 8.08967375 3.77180827 8.08967375 5 11 C0.25 15 0.25 15 -2 15 C-2 14.34 -2 13.68 -2 13 C-3.65 12.67 -5.3 12.34 -7 12 C-7 12.66 -7 13.32 -7 14 C-8.32 14 -9.64 14 -11 14 C-11 13.34 -11 12.68 -11 12 C-11.99 11.67 -12.98 11.34 -14 11 C-10.91190305 9.23537317 -9.76687864 9 -6 9 C-6 9.66 -6 10.32 -6 11 C-4.02 11 -2.04 11 0 11 C0.59070014 9.05396726 0.59070014 9.05396726 1 7 C0.67 6.67 0.34 6.34 0 6 C-0.04080783 4.00041636 -0.04254356 1.99954746 0 0 Z " fill="#260B00" transform="translate(204,429)"/>
<path d="M0 0 C2.97 0 5.94 0 9 0 C9 0.66 9 1.32 9 2 C7.02 2 5.04 2 3 2 C2.67 2.99 2.34 3.98 2 5 C-0.0625 6.1875 -0.0625 6.1875 -2 7 C-0.68 7.66 0.64 8.32 2 9 C1.01 9.33 0.02 9.66 -1 10 C-1 10.66 -1 11.32 -1 12 C-2.98 12 -4.96 12 -7 12 C-7 10.35 -7 8.7 -7 7 C-8.98 7 -10.96 7 -13 7 C-12.67 6.34 -12.34 5.68 -12 5 C-9.03 5 -6.06 5 -3 5 C-2.67 4.34 -2.34 3.68 -2 3 C-1.34 3 -0.68 3 0 3 C0 2.01 0 1.02 0 0 Z " fill="#330900" transform="translate(183,279)"/>
<path d="M0 0 C0.83819158 1.62249941 1.6704116 3.24808497 2.5 4.875 C2.9640625 5.77992188 3.428125 6.68484375 3.90625 7.6171875 C5 10 5 10 5 12 C-1.64615385 10.52307692 -1.64615385 10.52307692 -3.4375 7.875 C-3.623125 7.25625 -3.80875 6.6375 -4 6 C-4.66 6.66 -5.32 7.32 -6 8 C-6.33 6.35 -6.66 4.7 -7 3 C-2.25 0 -2.25 0 0 0 Z " fill="#D44300" transform="translate(225,428)"/>
<path d="M0 0 C0.66 0 1.32 0 2 0 C1.67 2.31 1.34 4.62 1 7 C0.09636719 7.20496094 -0.80726563 7.40992188 -1.73828125 7.62109375 C-2.91777344 7.89050781 -4.09726563 8.15992188 -5.3125 8.4375 C-7.07013672 8.83775391 -7.07013672 8.83775391 -8.86328125 9.24609375 C-12.00236971 9.95313969 -12.00236971 9.95313969 -15 11 C-15 10.34 -15 9.68 -15 9 C-15.66 9 -16.32 9 -17 9 C-17 8.34 -17 7.68 -17 7 C-12.9226074 4.89553931 -9.55520829 4.85192868 -5.0859375 5.02734375 C-2.80284301 5.10303975 -2.80284301 5.10303975 0 4 C0 2.68 0 1.36 0 0 Z " fill="#E84300" transform="translate(206,394)"/>
<path d="M0 0 C0.391875 0.639375 0.78375 1.27875 1.1875 1.9375 C3.78167435 4.88949151 6.2013431 4.71330891 10 5 C9.67 6.32 9.34 7.64 9 9 C8.34 9 7.68 9 7 9 C7 8.34 7 7.68 7 7 C6.01 7.495 6.01 7.495 5 8 C2.6670134 8.04022391 0.33293334 8.04320247 -2 8 C-2 7.01 -2 6.02 -2 5 C-3.32 4.67 -4.64 4.34 -6 4 C-2.25 0 -2.25 0 0 0 Z " fill="#E74500" transform="translate(202,411)"/>
<path d="M0 0 C0.66 0 1.32 0 2 0 C2.33 0.66 2.66 1.32 3 2 C5.02463255 2.65213292 5.02463255 2.65213292 7 3 C6.54738642 4.43931117 6.08767021 5.87638999 5.625 7.3125 C5.36976563 8.11300781 5.11453125 8.91351563 4.8515625 9.73828125 C4 12 4 12 2 15 C1.34 15 0.68 15 0 15 C0 10.05 0 5.1 0 0 Z " fill="#D63C00" transform="translate(332,374)"/>
<path d="M0 0 C5.75 0.875 5.75 0.875 8 2 C7.67 2.99 7.34 3.98 7 5 C6.01 5.33 5.02 5.66 4 6 C2.78130071 8.50447516 2.78130071 8.50447516 2 11 C0.35 10.67 -1.3 10.34 -3 10 C-3.33 8.68 -3.66 7.36 -4 6 C-0.86501708 4.14223235 1.37471432 3.79859524 5 4 C5 3.34 5 2.68 5 2 C3.35 2 1.7 2 0 2 C0 1.34 0 0.68 0 0 Z " fill="#DB4200" transform="translate(134,415)"/>
<path d="M0 0 C3.41911851 2.27941234 3.10118729 2.40474917 4 6 C4.99 6.66 5.98 7.32 7 8 C6.67 8.66 6.34 9.32 6 10 C5.67 10 5.34 10 5 10 C4.67 10.99 4.34 11.98 4 13 C3.01 12.67 2.02 12.34 1 12 C1 11.34 1 10.68 1 10 C0.34 10 -0.32 10 -1 10 C-0.67 6.7 -0.34 3.4 0 0 Z " fill="#571C00" transform="translate(220,433)"/>
<path d="M0 0 C3.96 0 7.92 0 12 0 C12 0.66 12 1.32 12 2 C12.99 2 13.98 2 15 2 C15 2.66 15 3.32 15 4 C10.05 4 5.1 4 0 4 C0 2.68 0 1.36 0 0 Z " fill="#421500" transform="translate(195,451)"/>
<path d="M0 0 C0.99 0.99 1.98 1.98 3 3 C1.35 3.66 -0.3 4.32 -2 5 C-2 6.65 -2 8.3 -2 10 C-2.391875 9.525625 -2.78375 9.05125 -3.1875 8.5625 C-5.40808374 6.64820367 -7.13375709 6.38733012 -10 6 C-9.3125 4.0625 -9.3125 4.0625 -8 2 C-5.5625 1.3125 -5.5625 1.3125 -3 1 C-2.01 0.67 -1.02 0.34 0 0 Z " fill="#DF3B00" transform="translate(504,344)"/>
<path d="M0 0 C0.33 0 0.66 0 1 0 C1 1.65 1 3.3 1 5 C0.01 5 -0.98 5 -2 5 C-2 5.66 -2 6.32 -2 7 C-1.34 7.33 -0.68 7.66 0 8 C0 8.66 0 9.32 0 10 C-2.31 9.34 -4.62 8.68 -7 8 C-7.33 6.68 -7.66 5.36 -8 4 C-6.865625 3.525625 -5.73125 3.05125 -4.5625 2.5625 C-1.24259834 1.36377917 -1.24259834 1.36377917 0 0 Z " fill="#CE3F00" transform="translate(195,416)"/>
<path d="M0 0 C0.33 0.99 0.66 1.98 1 3 C5.455 2.505 5.455 2.505 10 2 C10 2.66 10 3.32 10 4 C10.78375 4.144375 11.5675 4.28875 12.375 4.4375 C15 5 15 5 17 6 C17 6.99 17 7.98 17 9 C15.68 8.67 14.36 8.34 13 8 C13 7.34 13 6.68 13 6 C11.35 6 9.7 6 8 6 C8 5.34 8 4.68 8 4 C5.36 4.33 2.72 4.66 0 5 C0 3.35 0 1.7 0 0 Z " fill="#B73800" transform="translate(199,416)"/>
<path d="M0 0 C0.93065133 2.60582371 1.14917407 3.64198224 0.0625 6.25 C-0.4634375 7.11625 -0.4634375 7.11625 -1 8 C-2.65 7.67 -4.3 7.34 -6 7 C-6.33 5.02 -6.66 3.04 -7 1 C-3.535 0.505 -3.535 0.505 0 0 Z " fill="#321000" transform="translate(172,442)"/>
<path d="M0 0 C1.32 1.32 2.64 2.64 4 4 C2.02 4.99 2.02 4.99 0 6 C0 6.99 0 7.98 0 9 C-4.455 9.495 -4.455 9.495 -9 10 C-7.68 9.34 -6.36 8.68 -5 8 C-4.19471111 5.94999129 -4.19471111 5.94999129 -4 4 C-3.01 4 -2.02 4 -1 4 C-0.67 2.68 -0.34 1.36 0 0 Z " fill="#491600" transform="translate(186,421)"/>
<path d="M0 0 C2 0 2 0 4.125 2 C4.74375 2.66 5.3625 3.32 6 4 C6.99 3.67 7.98 3.34 9 3 C9.33 2.34 9.66 1.68 10 1 C10.99 1.66 11.98 2.32 13 3 C13 4.32 13 5.64 13 7 C4.86265342 6.65225015 4.86265342 6.65225015 1.4375 4.0625 C0 2 0 2 0 0 Z " fill="#CC3700" transform="translate(517,370)"/>
<path d="M0 0 C-0.33 1.65 -0.66 3.3 -1 5 C-0.34 5 0.32 5 1 5 C1 5.66 1 6.32 1 7 C-0.98 7.33 -2.96 7.66 -5 8 C-5.93423645 4.98968256 -6.04449911 4.13349732 -5 1 C-3 0 -3 0 0 0 Z " fill="#5B1900" transform="translate(133,402)"/>
<path d="M0 0 C2.97 0 5.94 0 9 0 C8.34 2.31 7.68 4.62 7 7 C6.34 6.67 5.68 6.34 5 6 C5 5.67 5 5.34 5 5 C3.35 5 1.7 5 0 5 C0 3.35 0 1.7 0 0 Z " fill="#2C0700" transform="translate(187,262)"/>
<path d="M0 0 C2.4375 0.625 2.4375 0.625 5 2 C5.8125 5.125 5.8125 5.125 6 8 C5.01 8.33 4.02 8.66 3 9 C2.67 9.66 2.34 10.32 2 11 C1.34 11 0.68 11 0 11 C0.03255208 8.94921875 0.06510417 6.8984375 0.09765625 4.84765625 C0.20561184 2.98267859 0.20561184 2.98267859 -1 2 C-0.67 1.34 -0.34 0.68 0 0 Z " fill="#1E0900" transform="translate(224,438)"/>
<path d="M0 0 C0.66 1.32 1.32 2.64 2 4 C1.38125 4.061875 0.7625 4.12375 0.125 4.1875 C-0.57625 4.455625 -1.2775 4.72375 -2 5 C-2.309375 5.825 -2.61875 6.65 -2.9375 7.5 C-3.4634375 8.7375 -3.4634375 8.7375 -4 10 C-6.625 10.8125 -6.625 10.8125 -9 11 C-9.33 9.35 -9.66 7.7 -10 6 C-9.278125 5.87625 -8.55625 5.7525 -7.8125 5.625 C-5.04278106 5.0095069 -2.6029646 4.11555626 0 3 C0 2.01 0 1.02 0 0 Z " fill="#2F0600" transform="translate(254,219)"/>
<path d="M0 0 C0.99 0.33 1.98 0.66 3 1 C2.75 4.375 2.75 4.375 2 8 C0.1875 9.5 0.1875 9.5 -2 10 C-4.25 9.625 -4.25 9.625 -6 9 C-5.01 8.67 -4.02 8.34 -3 8 C-2.67 7.01 -2.34 6.02 -2 5 C-1.34 5 -0.68 5 0 5 C0 3.35 0 1.7 0 0 Z " fill="#CE2700" transform="translate(166,292)"/>
<path d="M0 0 C0.66 0 1.32 0 2 0 C2 0.66 2 1.32 2 2 C5.465 1.505 5.465 1.505 9 1 C8.67 2.65 8.34 4.3 8 6 C5.69 5.67 3.38 5.34 1 5 C0.67 3.35 0.34 1.7 0 0 Z " fill="#E14300" transform="translate(216,408)"/>
<path d="M0 0 C0.66 0 1.32 0 2 0 C2 0.66 2 1.32 2 2 C2.99 2.33 3.98 2.66 5 3 C4.67 5.31 4.34 7.62 4 10 C2.68 10 1.36 10 0 10 C0 6.66666667 0 3.33333333 0 0 Z " fill="#641F00" transform="translate(204,429)"/>
<path d="M0 0 C0.66 0 1.32 0 2 0 C1.80743982 8.19256018 1.80743982 8.19256018 -1.5625 11.5625 C-2.366875 12.036875 -3.17125 12.51125 -4 13 C-3.34 9.7 -2.68 6.4 -2 3 C-1.34 3 -0.68 3 0 3 C0 2.01 0 1.02 0 0 Z " fill="#230500" transform="translate(219,251)"/>
<path d="M0 0 C3.96 0 7.92 0 12 0 C11.67 0.99 11.34 1.98 11 3 C9.68 2.67 8.36 2.34 7 2 C7 2.66 7 3.32 7 4 C6.01 4 5.02 4 4 4 C4 3.34 4 2.68 4 2 C2.68 2 1.36 2 0 2 C0 1.34 0 0.68 0 0 Z " fill="#922E00" transform="translate(463,407)"/>
<path d="M0 0 C-0.99 0.33 -1.98 0.66 -3 1 C-3.6814823 2.89179203 -3.6814823 2.89179203 -4 5 C-4.33 5.99 -4.66 6.98 -5 8 C-5.99 8 -6.98 8 -8 8 C-7.74438677 5.6568787 -7.40729228 3.32156597 -7 1 C-4.53721199 -0.231394 -2.7204945 -0.07159196 0 0 Z " fill="#DB3B00" transform="translate(300,371)"/>
<path d="M0 0 C0.99 0.33 1.98 0.66 3 1 C3 2.32 3 3.64 3 5 C-3.28571429 7.42857143 -3.28571429 7.42857143 -7 6 C-5.6100869 3.22017379 -3.81341647 3.12536659 -1 2 C-0.67 1.34 -0.34 0.68 0 0 Z " fill="#240700" transform="translate(124,325)"/>
<path d="M0 0 C0.66 0.99 1.32 1.98 2 3 C-2.41225737 4.47075246 -5.48281619 5.36884358 -10 4 C-9.67 3.01 -9.34 2.02 -9 1 C-6.03 1.33 -3.06 1.66 0 2 C0 1.34 0 0.68 0 0 Z " fill="#A42200" transform="translate(449,288)"/>
<path d="M0 0 C4.75 1.875 4.75 1.875 7 3 C6.67 3.99 6.34 4.98 6 6 C4.68 5.67 3.36 5.34 2 5 C1.67 5.66 1.34 6.32 1 7 C-0.0625 4.625 -0.0625 4.625 -1 2 C-0.67 1.34 -0.34 0.68 0 0 Z " fill="#E93D00" transform="translate(93,418)"/>
<path d="M0 0 C1.2065625 0.0309375 1.2065625 0.0309375 2.4375 0.0625 C2.1075 1.3825 1.7775 2.7025 1.4375 4.0625 C0.4475 4.0625 -0.5425 4.0625 -1.5625 4.0625 C-1.5625 4.7225 -1.5625 5.3825 -1.5625 6.0625 C-2.5525 5.7325 -3.5425 5.4025 -4.5625 5.0625 C-3.43829114 0.08386076 -3.43829114 0.08386076 0 0 Z " fill="#280D00" transform="translate(202.5625,459.9375)"/>
<path d="M0 0 C2.97 0.495 2.97 0.495 6 1 C6 1.66 6 2.32 6 3 C6.99 3 7.98 3 9 3 C9.33 2.34 9.66 1.68 10 1 C10 1.99 10 2.98 10 4 C6.59598052 5.13732426 4.22543336 4.83989957 0.75 4.0625 C-0.14203125 3.86785156 -1.0340625 3.67320312 -1.953125 3.47265625 C-2.62859375 3.31667969 -3.3040625 3.16070312 -4 3 C-2.68 2.67 -1.36 2.34 0 2 C0 1.34 0 0.68 0 0 Z " fill="#341000" transform="translate(461,408)"/>
<path d="M0 0 C0.33 0.99 0.66 1.98 1 3 C-2.01031744 3.93423645 -2.86650268 4.04449911 -6 3 C-6.33 3.66 -6.66 4.32 -7 5 C-7.66 4.67 -8.32 4.34 -9 4 C-9 3.34 -9 2.68 -9 2 C-5.86501708 0.14223235 -3.62528568 -0.20140476 0 0 Z " fill="#932000" transform="translate(127,330)"/>
<path d="M0 0 C2.64 0.33 5.28 0.66 8 1 C7.67 2.65 7.34 4.3 7 6 C6.01 6 5.02 6 4 6 C4 5.01 4 4.02 4 3 C2.68 3 1.36 3 0 3 C0 2.01 0 1.02 0 0 Z " fill="#540D00" transform="translate(399,242)"/>
<path d="M0 0 C1.32 0.66 2.64 1.32 4 2 C4 3.32 4 4.64 4 6 C4.99 6.33 5.98 6.66 7 7 C2.545 7.495 2.545 7.495 -2 8 C-2 7.01 -2 6.02 -2 5 C0.475 5.495 0.475 5.495 3 6 C2.67 5.01 2.34 4.02 2 3 C1.34 2.67 0.68 2.34 0 2 C0 1.34 0 0.68 0 0 Z " fill="#551000" transform="translate(420,268)"/>
<path d="M0 0 C-0.33 0.99 -0.66 1.98 -1 3 C-8.42857143 3.28571429 -8.42857143 3.28571429 -12 1 C-8.0186217 -0.3271261 -4.14954773 -0.06915913 0 0 Z " fill="#4C1800" transform="translate(191,446)"/>
<path d="M0 0 C0.33 0.66 0.66 1.32 1 2 C-1.78823655 3.0326802 -2.8677274 3.04509293 -5.75 2.0625 C-6.4925 1.711875 -7.235 1.36125 -8 1 C-8 0.34 -8 -0.32 -8 -1 C-4.61951646 -2.20731555 -3.00565087 -1.96921954 0 0 Z " fill="#250B00" transform="translate(173,438)"/>
<path d="M0 0 C3.64553172 1.2808625 5.16671013 2.16671013 8 5 C5.03 5 2.06 5 -1 5 C-0.67 3.35 -0.34 1.7 0 0 Z " fill="#E04500" transform="translate(463,396)"/>
<path d="M0 0 C5.445 1.485 5.445 1.485 11 3 C10.67 3.66 10.34 4.32 10 5 C3.375 4.25 3.375 4.25 0 2 C0 1.34 0 0.68 0 0 Z " fill="#CB2400" transform="translate(192,275)"/>
<path d="M0 0 C2.31 0 4.62 0 7 0 C6.67 0.99 6.34 1.98 6 3 C3.36 3.33 0.72 3.66 -2 4 C-2 3.34 -2 2.68 -2 2 C-1.34 2 -0.68 2 0 2 C0 1.34 0 0.68 0 0 Z " fill="#390800" transform="translate(225,251)"/>
<path d="M0 0 C0 0.66 0 1.32 0 2 C-2.97 2.66 -5.94 3.32 -9 4 C-9.33 3.01 -9.66 2.02 -10 1 C-6.52674819 -0.1577506 -3.63932552 -0.06866652 0 0 Z " fill="#6B0F00" transform="translate(297,229)"/>
<path d="M0 0 C0.99 0.33 1.98 0.66 3 1 C2.67 2.32 2.34 3.64 2 5 C1.01 5 0.02 5 -1 5 C-1.33 5.99 -1.66 6.98 -2 8 C-2.33 6.02 -2.66 4.04 -3 2 C-2.01 1.34 -1.02 0.68 0 0 Z " fill="#2B0D00" transform="translate(133,431)"/>
<path d="M0 0 C2.625 -0.1875 2.625 -0.1875 5 0 C5 0.99 5 1.98 5 3 C3.35 2.67 1.7 2.34 0 2 C-0.33 3.65 -0.66 5.3 -1 7 C-1.66 7 -2.32 7 -3 7 C-2.38722388 4.03824877 -1.74627478 2.61941217 0 0 Z " fill="#8C2700" transform="translate(351,377)"/>
<path d="M0 0 C3.375 -0.125 3.375 -0.125 7 0 C9.1385485 2.1385485 9.42655063 3.13275314 10 6 C8.68 6.33 7.36 6.66 6 7 C6 5.35 6 3.7 6 2 C4.02 2 2.04 2 0 2 C0 1.34 0 0.68 0 0 Z " fill="#8A1900" transform="translate(170,284)"/>
<path d="M0 0 C3 2 3 2 4 5 C4.66 5 5.32 5 6 5 C6 5.99 6 6.98 6 8 C1.125 7.125 1.125 7.125 0 6 C-0.04080783 4.00041636 -0.04254356 1.99954746 0 0 Z " fill="#310600" transform="translate(265,220)"/>
<path d="M0 0 C5.75 0.875 5.75 0.875 8 2 C7.67 2.99 7.34 3.98 7 5 C5.125 5.8125 5.125 5.8125 3 6 C2.01 5.34 1.02 4.68 0 4 C1.65 4 3.3 4 5 4 C5 3.34 5 2.68 5 2 C3.35 2 1.7 2 0 2 C0 1.34 0 0.68 0 0 Z " fill="#A83100" transform="translate(134,415)"/>
<path d="M0 0 C0 0.33 0 0.66 0 1 C-1.0725 1.2475 -2.145 1.495 -3.25 1.75 C-6.99649437 2.99883146 -8.52073882 4.02488658 -11 7 C-11 6.01 -11 5.02 -11 4 C-11.99 3.34 -12.98 2.68 -14 2 C-9.126739 0.4087311 -5.19209404 -0.21192221 0 0 Z " fill="#330F00" transform="translate(222,413)"/>
<path d="M0 0 C0.66 0.33 1.32 0.66 2 1 C2 2.65 2 4.3 2 6 C0.02 6 -1.96 6 -4 6 C-3.34 4.68 -2.68 3.36 -2 2 C-1.34 2 -0.68 2 0 2 C0 1.34 0 0.68 0 0 Z " fill="#2A0700" transform="translate(181,276)"/>
<path d="M0 0 C0.99 0.66 1.98 1.32 3 2 C0.53846154 5.81538462 0.53846154 5.81538462 -2.1875 6.75 C-2.785625 6.8325 -3.38375 6.915 -4 7 C-4 5.68 -4 4.36 -4 3 C-3.01 2.67 -2.02 2.34 -1 2 C-0.67 1.34 -0.34 0.68 0 0 Z " fill="#3D0900" transform="translate(503,426)"/>
<path d="M0 0 C2.97 0.495 2.97 0.495 6 1 C6 1.66 6 2.32 6 3 C5.195625 3.12375 4.39125 3.2475 3.5625 3.375 C2.2940625 3.684375 2.2940625 3.684375 1 4 C0.67 4.66 0.34 5.32 0 6 C0.99 6.33 1.98 6.66 3 7 C1.68 7 0.36 7 -1 7 C-1.625 5.1875 -1.625 5.1875 -2 3 C-1.34 2.01 -0.68 1.02 0 0 Z " fill="#370F00" transform="translate(290,386)"/>
<path d="M0 0 C0.33 0.66 0.66 1.32 1 2 C-0.98 2.99 -0.98 2.99 -3 4 C-3 4.99 -3 5.98 -3 7 C-5.86724686 6.42655063 -6.8614515 6.1385485 -9 4 C-7.35 3.67 -5.7 3.34 -4 3 C-4 2.34 -4 1.68 -4 1 C-2.68 0.67 -1.36 0.34 0 0 Z " fill="#3A0A00" transform="translate(166,284)"/>
<path d="M0 0 C1.32 0 2.64 0 4 0 C3.67 1.65 3.34 3.3 3 5 C2.01 5 1.02 5 0 5 C0 4.34 0 3.68 0 3 C-0.99 2.67 -1.98 2.34 -3 2 C-2.01 2 -1.02 2 0 2 C0 1.34 0 0.68 0 0 Z " fill="#2B0800" transform="translate(444,278)"/>
<path d="M0 0 C2.97 0 5.94 0 9 0 C9 0.66 9 1.32 9 2 C7.02 2 5.04 2 3 2 C3 2.66 3 3.32 3 4 C2.01 4 1.02 4 0 4 C0 2.68 0 1.36 0 0 Z " fill="#AB1E00" transform="translate(183,279)"/>
<path d="M0 0 C0.66 0 1.32 0 2 0 C2 0.99 2 1.98 2 3 C3.98 3 5.96 3 8 3 C8 3.33 8 3.66 8 4 C5.36 4.33 2.72 4.66 0 5 C-0.33 5.99 -0.66 6.98 -1 8 C-1.04241723 5.66705225 -1.04092937 3.33297433 -1 1 C-0.67 0.67 -0.34 0.34 0 0 Z " fill="#A21B00" transform="translate(182,266)"/>
<path d="M0 0 C0 1.65 0 3.3 0 5 C-1.32 5 -2.64 5 -4 5 C-4 4.34 -4 3.68 -4 3 C-4.99 2.67 -5.98 2.34 -7 2 C-4.35261084 0.5393715 -3.10551666 0 0 0 Z " fill="#8E2E00" transform="translate(197,438)"/>
<path d="M0 0 C3 2 3 2 3.6875 4.125 C3.790625 4.74375 3.89375 5.3625 4 6 C2.35 6.33 0.7 6.66 -1 7 C-0.67 4.69 -0.34 2.38 0 0 Z " fill="#6D2300" transform="translate(220,433)"/>
<path d="M0 0 C0.66 0 1.32 0 2 0 C1.67 2.31 1.34 4.62 1 7 C-0.98 7 -2.96 7 -5 7 C-3.625 5.5 -3.625 5.5 -2 4 C-1.34 4 -0.68 4 0 4 C0 2.68 0 1.36 0 0 Z " fill="#D33C00" transform="translate(206,394)"/>
<path d="M0 0 C2.1519437 3.22791555 2.20086443 4.28400809 2 8 C0.35 8.66 -1.3 9.32 -3 10 C-2.01 6.7 -1.02 3.4 0 0 Z " fill="#320D00" transform="translate(266,381)"/>
<path d="M0 0 C2.35448165 2.55068845 2.98327924 3.71017358 3.1875 7.25 C3.125625 8.1575 3.06375 9.065 3 10 C2.34 10 1.68 10 1 10 C0.87625 9.195625 0.7525 8.39125 0.625 7.5625 C0.315625 6.2940625 0.315625 6.2940625 0 5 C-0.66 4.67 -1.32 4.34 -2 4 C-1.34 2.68 -0.68 1.36 0 0 Z " fill="#441500" transform="translate(129,441)"/>
<path d="M0 0 C0.66 0.33 1.32 0.66 2 1 C1.75 3.375 1.75 3.375 1 6 C-1.0625 7.3125 -1.0625 7.3125 -3 8 C-2.74438677 5.6568787 -2.40729228 3.32156597 -2 1 C-1.34 0.67 -0.68 0.34 0 0 Z " fill="#100500" transform="translate(231,435)"/>
<path d="M0 0 C1.98 0 3.96 0 6 0 C6 1.98 6 3.96 6 6 C5.01 5.67 4.02 5.34 3 5 C3.33 4.34 3.66 3.68 4 3 C2.68 2.67 1.36 2.34 0 2 C0 1.34 0 0.68 0 0 Z " fill="#1E0900" transform="translate(176,431)"/>
<path d="M0 0 C1.4540625 0.0309375 1.4540625 0.0309375 2.9375 0.0625 C2.9375 1.0525 2.9375 2.0425 2.9375 3.0625 C1.2875 3.3925 -0.3625 3.7225 -2.0625 4.0625 C-2.7225 3.0725 -3.3825 2.0825 -4.0625 1.0625 C-3.0625 0.0625 -3.0625 0.0625 0 0 Z " fill="#671F00" transform="translate(468.0625,393.9375)"/>
<path d="M0 0 C0.99 0 1.98 0 3 0 C3.33 1.98 3.66 3.96 4 6 C4.99 6.33 5.98 6.66 7 7 C5.02 7 3.04 7 1 7 C1.020625 6.21625 1.04125 5.4325 1.0625 4.625 C1.18684063 2.01885039 1.18684063 2.01885039 0 0 Z " fill="#490900" transform="translate(291,217)"/>
<path d="M0 0 C0 0.66 0 1.32 0 2 C-6.4 5.07692308 -6.4 5.07692308 -9.4375 4.6875 C-9.953125 4.460625 -10.46875 4.23375 -11 4 C-7.34730776 1.66633552 -4.38405624 0 0 0 Z " fill="#522000" transform="translate(274,512)"/>
<path d="M0 0 C0.66 0 1.32 0 2 0 C2 1.65 2 3.3 2 5 C0.35 5.66 -1.3 6.32 -3 7 C-3.33 6.34 -3.66 5.68 -4 5 C-3.34 5 -2.68 5 -2 5 C-2 4.01 -2 3.02 -2 2 C-1.34 2 -0.68 2 0 2 C0 1.34 0 0.68 0 0 Z " fill="#C73700" transform="translate(113,441)"/>
<path d="M0 0 C-0.66 1.65 -1.32 3.3 -2 5 C-4.5 3.625 -4.5 3.625 -7 2 C-7 1.34 -7 0.68 -7 0 C-2.25 -1.125 -2.25 -1.125 0 0 Z " fill="#E63600" transform="translate(534,363)"/>
<path d="M0 0 C0 0.66 0 1.32 0 2 C-5.29411765 6 -5.29411765 6 -9 6 C-4.5 0 -4.5 0 0 0 Z " fill="#300A00" transform="translate(140,329)"/>
<path d="M0 0 C0.99 0.33 1.98 0.66 3 1 C3 1.99 3 2.98 3 4 C2.34 4 1.68 4 1 4 C1.33 5.32 1.66 6.64 2 8 C1.34 8 0.68 8 0 8 C0 6.68 0 5.36 0 4 C-0.66 3.67 -1.32 3.34 -2 3 C-1.34 2.01 -0.68 1.02 0 0 Z " fill="#2C0600" transform="translate(366,238)"/>
<path d="M0 0 C1.65 0 3.3 0 5 0 C5 1.98 5 3.96 5 6 C4.34 6 3.68 6 3 6 C2.67 5.01 2.34 4.02 2 3 C1.34 2.67 0.68 2.34 0 2 C0 1.34 0 0.68 0 0 Z " fill="#752400" transform="translate(198,431)"/>
<path d="M0 0 C0.66 0.66 1.32 1.32 2 2 C0.71475739 2.86380259 -0.57842419 3.71580369 -1.875 4.5625 C-2.59429687 5.03816406 -3.31359375 5.51382812 -4.0546875 6.00390625 C-4.69664062 6.33261719 -5.33859375 6.66132813 -6 7 C-6.66 6.67 -7.32 6.34 -8 6 C-5.51047079 3.33264727 -3.36591866 1.44253657 0 0 Z " fill="#9B2F00" transform="translate(149,422)"/>
<path d="M0 0 C0.33 0.99 0.66 1.98 1 3 C5.455 2.505 5.455 2.505 10 2 C9.34 3.32 8.68 4.64 8 6 C8 5.34 8 4.68 8 4 C5.36 4.33 2.72 4.66 0 5 C0 3.35 0 1.7 0 0 Z " fill="#6E2100" transform="translate(199,416)"/>
<path d="M0 0 C0.66 0.33 1.32 0.66 2 1 C1.25 3.4375 1.25 3.4375 0 6 C-2.125 6.8125 -2.125 6.8125 -4 7 C-2.92598892 4.08482708 -2.22189824 2.22189824 0 0 Z " fill="#451500" transform="translate(301,413)"/>
<path d="M0 0 C1.32 0 2.64 0 4 0 C4 0.99 4 1.98 4 3 C5.98 3 7.96 3 10 3 C7.35261084 4.4606285 6.10551666 5 3 5 C1.3125 2.5 1.3125 2.5 0 0 Z " fill="#3E1100" transform="translate(147,402)"/>
<path d="M0 0 C0.66 0 1.32 0 2 0 C2.33 1.65 2.66 3.3 3 5 C1.02 5.33 -0.96 5.66 -3 6 C-2.34 5.67 -1.68 5.34 -1 5 C-0.34444881 2.47266765 -0.34444881 2.47266765 0 0 Z " fill="#441300" transform="translate(382,387)"/>
<path d="M0 0 C1.98 0.66 3.96 1.32 6 2 C5.360625 2.309375 4.72125 2.61875 4.0625 2.9375 C2.06389179 3.8345163 2.06389179 3.8345163 1 5 C-1.33297433 5.04092937 -3.66705225 5.04241723 -6 5 C-6 4.67 -6 4.34 -6 4 C-4.02 4 -2.04 4 0 4 C0 2.68 0 1.36 0 0 Z " fill="#2C0700" transform="translate(192,277)"/>
<path d="M0 0 C2.97 0.495 2.97 0.495 6 1 C5.360625 1.45375 4.72125 1.9075 4.0625 2.375 C1.90297594 3.83921726 1.90297594 3.83921726 1 6 C0.34 5.67 -0.32 5.34 -1 5 C-0.67 3.35 -0.34 1.7 0 0 Z " fill="#380700" transform="translate(272,215)"/>
<path d="M0 0 C0 1.65 0 3.3 0 5 C-0.99 5 -1.98 5 -3 5 C-3.66 5.66 -4.32 6.32 -5 7 C-5.33 5.68 -5.66 4.36 -6 3 C-1.125 0 -1.125 0 0 0 Z " fill="#BD3900" transform="translate(196,416)"/>
<path d="M0 0 C2.16147703 1.08073852 3.41039672 2.19363264 5 4 C5 4.66 5 5.32 5 6 C3.35 5.67 1.7 5.34 0 5 C0 3.35 0 1.7 0 0 Z " fill="#3F1400" transform="translate(476,414)"/>
<path d="M0 0 C3.125 0.375 3.125 0.375 6 1 C5.67 2.32 5.34 3.64 5 5 C5 4.34 5 3.68 5 3 C2.69 2.67 0.38 2.34 -2 2 C-1.34 1.34 -0.68 0.68 0 0 Z " fill="#4C1000" transform="translate(529,354)"/>
<path d="M0 0 C4.75 0.75 4.75 0.75 7 3 C5.02 3.66 3.04 4.32 1 5 C0.67 3.35 0.34 1.7 0 0 Z " fill="#580B00" transform="translate(244,225)"/>
<path d="M0 0 C1.98 0 3.96 0 6 0 C6.33 1.98 6.66 3.96 7 6 C6.01 6 5.02 6 4 6 C4.33 4.68 4.66 3.36 5 2 C3.35 2 1.7 2 0 2 C0 1.34 0 0.68 0 0 Z " fill="#5D0C00" transform="translate(298,224)"/>
<path d="M0 0 C0.99 1.32 1.98 2.64 3 4 C0.29120665 5.35439668 -2.00933268 5.06501451 -5 5 C-5 4.01 -5 3.02 -5 2 C-3.68 2 -2.36 2 -1 2 C-0.67 1.34 -0.34 0.68 0 0 Z " fill="#400E00" transform="translate(100,421)"/>
<path d="M0 0 C2.0625 0.75 2.0625 0.75 4 2 C4.33 2.99 4.66 3.98 5 5 C2.97954558 4.39816251 0.97888961 3.72693904 -1 3 C-1.33 2.34 -1.66 1.68 -2 1 C-1.34 0.67 -0.68 0.34 0 0 Z " fill="#CE3A00" transform="translate(142,403)"/>
<path d="M0 0 C0.66 0.33 1.32 0.66 2 1 C1.67 2.65 1.34 4.3 1 6 C0.34 6 -0.32 6 -1 6 C-1 5.01 -1 4.02 -1 3 C-1.66 2.67 -2.32 2.34 -3 2 C-2.01 1.34 -1.02 0.68 0 0 Z " fill="#481500" transform="translate(300,393)"/>
<path d="M0 0 C-0.66 1.32 -1.32 2.64 -2 4 C-2 3.34 -2 2.68 -2 2 C-3.32 2 -4.64 2 -6 2 C-6 1.34 -6 0.68 -6 0 C-3.50907189 -1.24546405 -2.58919267 -0.7767578 0 0 Z " fill="#461000" transform="translate(90,357)"/>
</svg>
